<svg width="2787" height="2475" xmlns="http://www.w3.org/2000/svg" xmlns:xlink="http://www.w3.org/1999/xlink" overflow="hidden"><defs><clipPath id="clip0"><rect x="806" y="0" width="2787" height="2475"/></clipPath></defs><g clip-path="url(#clip0)" transform="translate(-806 0)"><path d="M810 0 3590 0 3590 2475 810 2475Z" fill="#843495" fill-rule="evenodd" fill-opacity="1"/><path d="M2261 976.692 2151.03 976.692 2164.92 866 2078.77 866 2065.25 976.692 1963.31 976.692 1951.26 1075.03 2052.83 1075.03 2039.99 1181.41 1938.03 1181.41 1926 1279.75 2027.57 1279.75 2012.61 1403 2098.47 1403 2139.03 1075.03 2248.67 1075.03 2261 976.692Z" fill="#83B6FF" fill-rule="evenodd" fill-opacity="1"/><path d="M2461.97 1087.59 2474 989.252 2372.43 989.252 2387.39 866 2301.55 866 2260.97 1193.99 2151.34 1193.99 2139 1292.33 2248.97 1292.33 2235.1 1403 2321.25 1403 2334.77 1292.33 2436.71 1292.33 2448.74 1193.99 2347.17 1193.99 2360.03 1087.59 2461.97 1087.59Z" fill="#59BDA4" fill-rule="evenodd" fill-opacity="1"/><path d="M1275.78 1571.42 1202.2 1571.42 1202.2 1473 1153 1473 1153 1719 1202.2 1719 1202.2 1620.58 1275.78 1620.58 1275.78 1719 1325 1719 1325 1473 1275.78 1473 1275.78 1571.42Z" fill="#A982FC" fill-rule="evenodd" fill-opacity="1"/><path d="M1878.8 1571.42 1805.2 1571.42 1805.2 1473 1756 1473 1756 1719 1805.2 1719 1805.2 1620.58 1878.8 1620.58 1878.8 1719 1928 1719 1928 1473 1878.8 1473 1878.8 1571.42Z" fill="#A982FC" fill-rule="evenodd" fill-opacity="1"/><path d="M2957 1473 3006 1473 3006 1719 2957 1719Z" fill="#A982FC" fill-rule="evenodd" fill-opacity="1"/><path d="M1649.5 1522.86C1662.99 1522.91 1673.93 1533.84 1674.01 1547.35L1722.95 1547.35C1722.31 1506.72 1688.89 1474.3 1648.31 1474.94 1608.63 1475.57 1576.61 1507.62 1575.99 1547.35 1575.99 1560.75 1579.27 1571.94 1585.85 1580.91 1591.91 1589.43 1599.45 1596.8 1608.09 1602.68 1615.36 1607.66 1623.22 1611.7 1631.49 1614.71 1638.82 1617.26 1643.28 1618.76 1644.8 1619.28 1647.74 1620.39 1653.33 1622.47 1661.6 1625.52 1669.86 1628.57 1674 1635.23 1674.01 1645.51 1674.38 1659.04 1663.73 1670.31 1650.21 1670.68 1636.7 1671.05 1625.44 1660.38 1625.07 1646.85 1625.06 1646.41 1625.06 1645.96 1625.07 1645.51L1575.95 1645.51C1576.59 1686.14 1610.01 1718.56 1650.59 1717.92 1690.27 1717.29 1722.29 1685.24 1722.91 1645.51 1722.91 1631.82 1719.52 1620.58 1712.74 1611.81 1706.45 1603.49 1698.7 1596.39 1689.85 1590.88 1682.32 1586.12 1674.2 1582.39 1665.69 1579.77 1658.04 1577.55 1653.36 1576.1 1651.64 1575.51 1647.97 1574.5 1642.63 1571.73 1635.6 1567.21 1628.71 1563.03 1624.66 1555.41 1625.04 1547.35 1624.96 1540.85 1627.54 1534.61 1632.19 1530.07 1636.7 1525.36 1642.98 1522.75 1649.5 1522.86Z" fill="#A982FC" fill-rule="evenodd" fill-opacity="1"/><path d="M2516 1522.14 2577.48 1522.14 2577.48 1719 2626.75 1719 2626.75 1522.14 2688.24 1522.14 2708 1473 2535.77 1473 2516 1522.14Z" fill="#A982FC" fill-rule="evenodd" fill-opacity="1"/><path d="M3247 1473 3190.16 1473 3168 1511.85 3196.17 1562 3247 1473Z" fill="#A982FC" fill-rule="evenodd" fill-opacity="1"/><path d="M3176.79 1595.69 3148.49 1546.13 3148.44 1546.26 3106.55 1473 3050 1473 3120.01 1595.85 3050 1718.85 3106.55 1719 3148.44 1645.6 3190.31 1719 3247 1719 3176.7 1595.85 3176.79 1595.69Z" fill="#A982FC" fill-rule="evenodd" fill-opacity="1"/><path d="M2896.37 1608.38C2923.53 1569.33 2913.93 1515.61 2874.95 1488.4 2860.56 1478.35 2843.46 1472.96 2825.9 1472.93L2823.22 1472.93 2823.22 1522.07 2825.9 1522.07C2846.27 1522.07 2862.77 1538.6 2862.77 1559 2862.77 1579.4 2846.27 1595.93 2825.9 1595.93L2789.15 1595.93 2789.15 1522.07 2789.35 1522.07 2789.35 1472.93 2739.95 1472.93 2739.95 1718.93 2789.15 1718.93 2789.15 1628.9 2851.93 1718.93 2911.95 1718.93 2856.5 1639.42C2872.62 1633.35 2886.51 1622.53 2896.37 1608.38Z" fill="#A982FC" fill-rule="evenodd" fill-opacity="1"/><path d="M2053 1719 2106.63 1719 2142.15 1615.52 2179.87 1717.97 2205 1647.29 2140.46 1473 2053 1719Z" fill="#A982FC" fill-rule="evenodd" fill-opacity="1"/><path d="M2196 1545.78 2258 1719 2312 1719 2223.95 1473 2196 1545.78Z" fill="#A982FC" fill-rule="evenodd" fill-opacity="1"/><path d="M2329 1719 2383.99 1719 2397.13 1686.28 2437.61 1686.28 2417.01 1636.82 2431.51 1600.73 2479.61 1719 2534 1719 2431.51 1473 2329 1719Z" fill="#A982FC" fill-rule="evenodd" fill-opacity="1"/><path d="M1353 1719 1407.99 1719 1421.12 1686.28 1461.6 1686.28 1441 1636.82 1455.5 1600.73 1503.62 1719 1558 1719 1455.5 1473 1353 1719Z" fill="#A982FC" fill-rule="evenodd" fill-opacity="1"/></g></svg>