<svg width="2731" height="2475" xmlns="http://www.w3.org/2000/svg" xmlns:xlink="http://www.w3.org/1999/xlink" overflow="hidden"><defs><clipPath id="clip0"><rect x="834" y="0" width="2731" height="2475"/></clipPath></defs><g clip-path="url(#clip0)" transform="translate(-834 0)"><path d="M838 0 3562 0 3562 2475 838 2475Z" fill="#64A554" fill-rule="evenodd" fill-opacity="1"/><path d="M2321 924.51 2103.02 924.51 2130.55 705 1959.79 705 1932.99 924.51 1730.94 924.51 1707.09 1119.53 1908.4 1119.53 1882.91 1330.55 1680.85 1330.55 1657 1525.57 1858.32 1525.57 1828.68 1770 1998.82 1770 2079.26 1119.53 2296.55 1119.53 2321 924.51Z" fill="#75E0C0" fill-rule="evenodd" fill-opacity="1"/><path d="M2719.15 1144.45 2743 949.43 2541.68 949.43 2571.32 705 2401.16 705 2320.74 1355.47 2103.44 1355.47 2079 1550.49 2296.96 1550.49 2269.45 1770 2440.19 1770 2467 1550.49 2669.06 1550.49 2692.91 1355.47 2491.6 1355.47 2517.07 1144.45 2719.15 1144.45Z" fill="#CBF653" fill-rule="evenodd" fill-opacity="1"/></g></svg>