<svg width="3392" height="509" xmlns="http://www.w3.org/2000/svg" xmlns:xlink="http://www.w3.org/1999/xlink" overflow="hidden"><defs><clipPath id="clip0"><rect x="435" y="985" width="3392" height="509"/></clipPath></defs><g clip-path="url(#clip0)" transform="translate(-435 -985)"><path d="M1117.94 1075 1117.94 1205.43 1215.06 1205.43 1215.06 1075 1280 1075 1280 1401 1215.06 1401 1215.06 1270.54 1117.94 1270.54 1117.94 1401 1053 1401 1053 1075Z" fill="#FFFFFF" fill-rule="evenodd" fill-opacity="1"/><path d="M1924.23 1075 1924.23 1205.43 2021.77 1205.43 2021.77 1075 2087 1075 2087 1401 2021.77 1401 2021.77 1270.54 1924.23 1270.54 1924.23 1401 1859 1401 1859 1075Z" fill="#FFFFFF" fill-rule="evenodd" fill-opacity="1"/><path d="M3441 1075 3506 1075 3506 1401 3441 1401Z" fill="#FFFFFF" fill-rule="evenodd" fill-opacity="1"/><path d="M1694.76 1261.65C1683.77 1257.67 1673.33 1252.32 1663.68 1245.72 1652.22 1237.97 1642.22 1228.24 1634.15 1216.99 1625.42 1205.1 1621.06 1190.27 1621.06 1172.51 1621.06 1118.66 1664.7 1075 1718.53 1075 1772.36 1075 1816 1118.66 1816 1172.51L1751.09 1172.51C1750.55 1154.58 1735.59 1140.48 1717.66 1141.02 1700.49 1141.53 1686.69 1155.33 1686.17 1172.51 1685.74 1183.15 1691.11 1193.18 1700.2 1198.71 1706.76 1203.32 1713.91 1207.02 1721.47 1209.72 1723.74 1210.53 1729.96 1212.39 1740.09 1215.36 1751.36 1218.83 1762.13 1223.78 1772.09 1230.09 1783.82 1237.4 1794.1 1246.79 1802.44 1257.8 1811.46 1269.45 1815.96 1284.34 1815.94 1302.49 1815.94 1356.34 1772.3 1400 1718.47 1400 1664.64 1400 1621 1356.34 1621 1302.49L1686.17 1302.49C1686.71 1320.42 1701.68 1334.52 1719.6 1333.98 1736.77 1333.47 1750.57 1319.67 1751.09 1302.49 1751.09 1288.78 1745.62 1279.91 1734.68 1275.85 1723.74 1271.8 1716.31 1269.04 1712.39 1267.58 1710.38 1267.03 1704.48 1265.02 1694.76 1261.65Z" fill="#FFFFFF" fill-rule="evenodd" fill-opacity="1"/><path d="M3112 1075 3085.78 1140.14 3004.52 1140.14 3004.52 1401 2939.33 1401 2939.33 1140.23 2858 1140.23 2884.22 1075.09Z" fill="#FFFFFF" fill-rule="evenodd" fill-opacity="1"/><path d="M2376.83 1226.34 2376.77 1226.49 2369.94 1209.41 2366.53 1201.03 2366.53 1200.89 2316.16 1075 2186 1401 2256.35 1401 2316.16 1253.37 2376.16 1401 2412 1312.85 2376.83 1226.34Z" fill="#FFFFFF" fill-rule="evenodd" fill-opacity="1"/><path d="M2436.2 1075 2401 1164.99 2436.2 1253.37 2496.07 1401 2566 1401 2436.2 1075Z" fill="#FFFFFF" fill-rule="evenodd" fill-opacity="1"/><path d="M3758.08 1193 3825 1075 3750.17 1075 3721 1126.51 3758.08 1193Z" fill="#FFFFFF" fill-rule="evenodd" fill-opacity="1"/><path d="M3732.34 1237.61 3694.99 1171.93 3694.9 1172.08 3639.61 1075 3565 1075 3657.37 1237.81 3565 1400.8 3639.61 1401 3694.9 1303.72 3750.15 1401 3825 1401 3732.22 1237.81 3732.34 1237.61Z" fill="#FFFFFF" fill-rule="evenodd" fill-opacity="1"/><path d="M3362.21 1254.49C3398.22 1202.71 3385.48 1131.52 3333.76 1095.48 3314.72 1082.21 3292.09 1075.07 3268.91 1075L3265.36 1075 3265.36 1140.23 3268.91 1140.23C3295.91 1140.89 3317.25 1163.33 3316.61 1190.35 3315.97 1216.45 3294.98 1237.45 3268.91 1238.09L3220.22 1238.09 3220.22 1140.23 3220.51 1140.23 3220.51 1075 3155 1075 3155 1401 3220.22 1401 3220.22 1281.69 3303.46 1401 3383 1401 3309.47 1295.64C3330.81 1287.58 3349.18 1273.23 3362.21 1254.49Z" fill="#FFFFFF" fill-rule="evenodd" fill-opacity="1"/><path d="M1462.37 1090.38 1455.31 1075 1448.43 1090.18 1309 1401 1322.74 1401 1364.79 1401 1367.41 1401 1378.52 1401 1399.52 1354.5 1400.54 1352.05 1459.6 1352.05 1430.03 1287.05 1430.11 1286.93 1429.85 1286.93 1455.51 1229.93 1480.97 1286.93 1480.86 1286.93 1532.74 1401 1543.41 1401 1546.24 1401 1588.26 1401 1602 1401 1462.37 1090.38Z" fill="#FFFFFF" fill-rule="evenodd" fill-opacity="1"/><path d="M2739.84 1090.38 2732.81 1075 2725.95 1090.18 2587 1401 2600.72 1401 2642.6 1401 2645.21 1401 2656.29 1401 2677.21 1354.5 2678.23 1352.05 2737.08 1352.05 2707.61 1287.05 2707.73 1286.93 2707.44 1286.93 2733.01 1229.93 2758.39 1286.93 2758.27 1286.93 2809.97 1401 2820.61 1401 2823.43 1401 2865.31 1401 2879 1401 2739.84 1090.38Z" fill="#FFFFFF" fill-rule="evenodd" fill-opacity="1"/><path d="M750 1090.1 646.932 1090.1 659.925 986 579.208 986 566.506 1090.1 470.966 1090.1 459.689 1182.56 554.88 1182.56 542.847 1282.62 447.307 1282.62 436 1375.11 531.22 1375.11 517.181 1491 597.636 1491 635.683 1182.56 738.432 1182.56 750 1090.1Z" fill="#FFFFFF" fill-rule="evenodd" fill-opacity="1"/><path d="M938.722 1194.38 950 1101.89 854.8 1101.89 868.811 986 788.349 986 750.327 1294.44 647.569 1294.44 636 1386.93 739.078 1386.93 726.084 1491 806.808 1491 819.482 1386.93 915.031 1386.93 926.309 1294.44 831.109 1294.44 843.173 1194.38 938.722 1194.38Z" fill="#FFFFFF" fill-rule="evenodd" fill-opacity="1"/></g></svg>