<svg id="图层_1" data-name="图层 1" xmlns="http://www.w3.org/2000/svg" viewBox="0 0 632.63 620.97"><defs><style>.cls-1{fill:#fff;}</style></defs><title>Icon（图标）白色</title><polygon class="cls-1" points="386.68 127.99 259.74 127.99 275.77 0 176.33 0 160.72 127.99 43.06 127.99 29.17 241.7 146.4 241.7 131.56 364.74 13.89 364.74 0 478.45 117.24 478.45 99.98 620.97 199.06 620.97 245.9 241.7 372.44 241.7 386.68 127.99"/><polygon class="cls-1" points="618.74 256.23 632.63 142.52 515.39 142.52 532.65 0 433.56 0 386.73 379.27 260.18 379.27 245.95 492.98 372.88 492.98 356.86 620.97 456.29 620.97 471.9 492.98 589.57 492.98 603.46 379.27 486.23 379.27 501.06 256.23 618.74 256.23"/></svg>