<svg width="3391" height="509" xmlns="http://www.w3.org/2000/svg" xmlns:xlink="http://www.w3.org/1999/xlink" overflow="hidden"><defs><clipPath id="clip0"><rect x="504" y="985" width="3391" height="509"/></clipPath></defs><g clip-path="url(#clip0)" transform="translate(-504 -985)"><path d="M1187.94 1075 1187.94 1205.43 1285.06 1205.43 1285.06 1075 1350 1075 1350 1401 1285.06 1401 1285.06 1270.54 1187.94 1270.54 1187.94 1401 1123 1401 1123 1075Z" fill="#FFFFFF" fill-rule="evenodd" fill-opacity="1"/><path d="M1994.23 1075 1994.23 1205.43 2091.77 1205.43 2091.77 1075 2157 1075 2157 1401 2091.77 1401 2091.77 1270.54 1994.23 1270.54 1994.23 1401 1929 1401 1929 1075Z" fill="#FFFFFF" fill-rule="evenodd" fill-opacity="1"/><path d="M3511 1075 3576 1075 3576 1401 3511 1401Z" fill="#FFFFFF" fill-rule="evenodd" fill-opacity="1"/><path d="M1764.76 1261.65C1753.77 1257.67 1743.33 1252.32 1733.68 1245.72 1722.22 1237.97 1712.22 1228.24 1704.15 1216.99 1695.42 1205.1 1691.06 1190.27 1691.06 1172.51 1691.06 1118.66 1734.7 1075 1788.53 1075 1842.36 1075 1886 1118.66 1886 1172.51L1821.09 1172.51C1820.55 1154.58 1805.59 1140.48 1787.66 1141.02 1770.49 1141.53 1756.69 1155.33 1756.17 1172.51 1755.74 1183.15 1761.11 1193.18 1770.2 1198.71 1776.76 1203.32 1783.91 1207.02 1791.47 1209.72 1793.74 1210.53 1799.96 1212.39 1810.09 1215.36 1821.36 1218.83 1832.13 1223.78 1842.09 1230.09 1853.82 1237.4 1864.1 1246.79 1872.44 1257.8 1881.46 1269.45 1885.96 1284.34 1885.94 1302.49 1885.94 1356.34 1842.3 1400 1788.47 1400 1734.64 1400 1691 1356.34 1691 1302.49L1756.17 1302.49C1756.71 1320.42 1771.68 1334.52 1789.6 1333.98 1806.77 1333.47 1820.57 1319.67 1821.09 1302.49 1821.09 1288.78 1815.62 1279.91 1804.68 1275.85 1793.74 1271.8 1786.31 1269.04 1782.39 1267.58 1780.38 1267.03 1774.48 1265.02 1764.76 1261.65Z" fill="#FFFFFF" fill-rule="evenodd" fill-opacity="1"/><path d="M3182 1075 3155.78 1140.14 3074.52 1140.14 3074.52 1401 3009.33 1401 3009.33 1140.23 2928 1140.23 2954.22 1075.09Z" fill="#FFFFFF" fill-rule="evenodd" fill-opacity="1"/><path d="M2446.83 1226.34 2446.77 1226.49 2439.94 1209.41 2436.53 1201.03 2436.53 1200.89 2386.16 1075 2256 1401 2326.35 1401 2386.16 1253.37 2446.16 1401 2482 1312.85 2446.83 1226.34Z" fill="#FFFFFF" fill-rule="evenodd" fill-opacity="1"/><path d="M2506.2 1075 2471 1164.99 2506.2 1253.37 2566.07 1401 2636 1401 2506.2 1075Z" fill="#FFFFFF" fill-rule="evenodd" fill-opacity="1"/><path d="M3828.08 1193 3895 1075 3820.17 1075 3791 1126.51 3828.08 1193Z" fill="#FFFFFF" fill-rule="evenodd" fill-opacity="1"/><path d="M3802.34 1237.61 3764.99 1171.93 3764.9 1172.08 3709.61 1075 3635 1075 3727.37 1237.81 3635 1400.8 3709.61 1401 3764.9 1303.72 3820.15 1401 3895 1401 3802.22 1237.81 3802.34 1237.61Z" fill="#FFFFFF" fill-rule="evenodd" fill-opacity="1"/><path d="M3432.21 1254.49C3468.22 1202.71 3455.48 1131.52 3403.76 1095.48 3384.72 1082.21 3362.09 1075.07 3338.91 1075L3335.36 1075 3335.36 1140.23 3338.91 1140.23C3365.91 1140.89 3387.25 1163.33 3386.61 1190.35 3385.97 1216.45 3364.98 1237.45 3338.91 1238.09L3290.22 1238.09 3290.22 1140.23 3290.51 1140.23 3290.51 1075 3225 1075 3225 1401 3290.22 1401 3290.22 1281.69 3373.46 1401 3453 1401 3379.47 1295.64C3400.81 1287.58 3419.18 1273.23 3432.21 1254.49Z" fill="#FFFFFF" fill-rule="evenodd" fill-opacity="1"/><path d="M1532.37 1090.38 1525.31 1075 1518.43 1090.18 1379 1401 1392.74 1401 1434.79 1401 1437.41 1401 1448.52 1401 1469.52 1354.5 1470.54 1352.05 1529.6 1352.05 1500.03 1287.05 1500.11 1286.93 1499.85 1286.93 1525.51 1229.93 1550.97 1286.93 1550.86 1286.93 1602.74 1401 1613.41 1401 1616.24 1401 1658.26 1401 1672 1401 1532.37 1090.38Z" fill="#FFFFFF" fill-rule="evenodd" fill-opacity="1"/><path d="M2809.84 1090.38 2802.81 1075 2795.95 1090.18 2657 1401 2670.72 1401 2712.6 1401 2715.21 1401 2726.29 1401 2747.21 1354.5 2748.23 1352.05 2807.08 1352.05 2777.61 1287.05 2777.73 1286.93 2777.44 1286.93 2803.01 1229.93 2828.39 1286.93 2828.27 1286.93 2879.97 1401 2890.61 1401 2893.43 1401 2935.31 1401 2949 1401 2809.84 1090.38Z" fill="#FFFFFF" fill-rule="evenodd" fill-opacity="1"/><path d="M820 1090.1 716.932 1090.1 729.924 986 649.208 986 636.506 1090.1 540.967 1090.1 529.689 1182.56 624.88 1182.56 612.847 1282.62 517.307 1282.62 506 1375.11 601.22 1375.11 587.181 1491 667.636 1491 705.683 1182.56 808.432 1182.56 820 1090.1Z" fill="#FFFFFF" fill-rule="evenodd" fill-opacity="1"/><path d="M1008.72 1194.38 1020 1101.89 924.8 1101.89 938.811 986 858.349 986 820.327 1294.44 717.569 1294.44 706 1386.93 809.078 1386.93 796.084 1491 876.808 1491 889.482 1386.93 985.03 1386.93 996.309 1294.44 901.109 1294.44 913.172 1194.38 1008.72 1194.38Z" fill="#FFFFFF" fill-rule="evenodd" fill-opacity="1"/></g></svg>