<svg width="2695" height="2475" xmlns="http://www.w3.org/2000/svg" xmlns:xlink="http://www.w3.org/1999/xlink" overflow="hidden"><defs><clipPath id="clip0"><rect x="852" y="0" width="2695" height="2475"/></clipPath><clipPath id="clip1"><rect x="1284" y="863" width="1832" height="749"/></clipPath><clipPath id="clip2"><rect x="1284" y="863" width="1832" height="749"/></clipPath><clipPath id="clip3"><rect x="1284" y="863" width="1832" height="749"/></clipPath></defs><g clip-path="url(#clip0)" transform="translate(-852 0)"><path d="M853 0 3547 0 3547 2475 853 2475Z" fill="#9076C6" fill-rule="evenodd" fill-opacity="1"/><g clip-path="url(#clip1)"><g clip-path="url(#clip2)"><g clip-path="url(#clip3)"><path d="M968.197 96.7634 872.237 96.7634 884.359 0 809.186 0 797.386 96.7634 708.435 96.7634 697.921 182.724 786.55 182.724 775.345 275.725 686.379 275.725 675.881 361.685 764.51 361.685 751.456 469.429 826.371 469.429 861.771 182.724 957.442 182.724 968.197 96.7634Z" fill="#D2ED66" fill-rule="nonzero" fill-opacity="1" transform="matrix(1 0 0 1.00114 1285 864.185)"/><path d="M1143.62 193.704 1154.12 107.744 1065.49 107.744 1078.54 0 1003.64 0 968.229 286.721 872.575 286.721 861.804 372.681 957.763 372.681 945.658 469.429 1020.83 469.429 1032.63 372.681 1121.58 372.681 1132.08 286.721 1043.45 286.721 1054.67 193.704 1143.62 193.704Z" fill="#D2ED66" fill-rule="nonzero" fill-opacity="1" transform="matrix(1 0 0 1.00114 1285 864.185)"/><path d="M107.406 616.913 43.0363 616.913 43.0363 530.969 0 530.969 0 745.781 43.0363 745.781 43.0363 659.837 107.406 659.837 107.406 745.781 150.458 745.781 150.458 530.969 107.406 530.969 107.406 616.913Z" fill="#D2ED66" fill-rule="nonzero" fill-opacity="1" transform="matrix(1 0 0 1.00114 1285 864.185)"/><path d="M634.259 616.913 569.89 616.913 569.89 530.969 526.853 530.969 526.853 745.781 569.89 745.781 569.89 659.837 634.259 659.837 634.259 745.781 677.296 745.781 677.296 530.969 634.259 530.969 634.259 616.913Z" fill="#D2ED66" fill-rule="nonzero" fill-opacity="1" transform="matrix(1 0 0 1.00114 1285 864.185)"/><path d="M1576.35 530.969 1619.38 530.969 1619.38 745.797 1576.35 745.797Z" fill="#D2ED66" fill-rule="nonzero" fill-opacity="1" transform="matrix(1 0 0 1.00114 1285 864.185)"/><path d="M658.534 885.034C670.368 885.077 679.958 894.646 680.029 906.48L722.936 906.48C722.374 870.898 693.074 842.509 657.493 843.071 622.704 843.621 594.634 871.69 594.084 906.48 594.084 918.215 596.967 928.011 602.734 935.867 608.048 943.331 614.653 949.788 622.234 954.934 628.602 959.294 635.494 962.832 642.747 965.464 649.178 967.698 653.085 969.017 654.419 969.467 656.991 970.442 661.899 972.264 669.145 974.933 676.39 977.601 680.017 983.437 680.029 992.44 680.353 1004.29 671.011 1014.16 659.161 1014.48 647.313 1014.81 637.446 1005.46 637.121 993.615 637.11 993.223 637.11 992.83 637.121 992.44L594.052 992.44C594.615 1028.02 623.914 1056.41 659.496 1055.85 694.285 1055.3 722.354 1027.23 722.904 992.44 722.904 980.447 719.93 970.608 713.982 962.924 708.472 955.638 701.672 949.426 693.918 944.597 687.316 940.434 680.191 937.164 672.73 934.87 666.026 932.925 661.927 931.655 660.415 931.141 657.2 930.252 652.511 927.829 646.349 923.874 640.31 920.209 636.758 913.536 637.089 906.48 637.021 900.792 639.286 895.324 643.358 891.352 647.318 887.225 652.818 884.936 658.534 885.034Z" fill="#D2ED66" fill-rule="nonzero" fill-opacity="1" transform="matrix(1 0 0 1.00114 1060.19 552.674)"/><path d="M1191.16 573.877 1244.87 573.877 1244.87 745.781 1287.91 745.781 1287.91 573.877 1341.62 573.877 1358.88 530.969 1208.43 530.969 1191.16 573.877Z" fill="#D2ED66" fill-rule="nonzero" fill-opacity="1" transform="matrix(1 0 0 1.00114 1285 864.185)"/><path d="M1830 530.969 1780.57 530.969 1761.29 564.745 1785.79 608.344 1830 530.969Z" fill="#D2ED66" fill-rule="nonzero" fill-opacity="1" transform="matrix(1 0 0 1.00114 1285 864.185)"/><path d="M1768.78 638.102 1744.1 594.824 1744.06 594.937 1707.53 530.969 1658.22 530.969 1719.27 638.246 1658.22 745.652 1707.53 745.781 1744.06 681.684 1780.57 745.781 1830 745.781 1768.7 638.246 1768.78 638.102Z" fill="#D2ED66" fill-rule="nonzero" fill-opacity="1" transform="matrix(1 0 0 1.00114 1285 864.185)"/><path d="M1748.65 960.4C1772.41 926.3 1764.02 879.394 1729.92 855.635 1717.34 846.862 1702.37 842.149 1687.02 842.126L1684.67 842.126 1684.67 885.034 1687.02 885.034C1704.83 885.034 1719.27 899.472 1719.27 917.283 1719.27 935.094 1704.83 949.532 1687.02 949.532L1654.86 949.532 1654.86 885.034 1655.04 885.034 1655.04 842.126 1611.83 842.126 1611.83 1056.94 1654.86 1056.94 1654.86 978.325 1709.78 1056.94 1762.29 1056.94 1713.78 987.504C1727.88 982.207 1740.04 972.756 1748.65 960.4Z" fill="#D2ED66" fill-rule="nonzero" fill-opacity="1" transform="matrix(1 0 0 1.00114 1060.19 552.674)"/><path d="M786.422 745.781 833.348 745.781 864.424 655.416 897.429 744.88 919.421 683.163 862.945 530.969 786.422 745.781Z" fill="#D2ED66" fill-rule="nonzero" fill-opacity="1" transform="matrix(1 0 0 1.00114 1285 864.185)"/><path d="M911.72 594.519 965.608 745.781 1012.54 745.781 936.012 530.969 911.72 594.519Z" fill="#D2ED66" fill-rule="nonzero" fill-opacity="1" transform="matrix(1 0 0 1.00114 1285 864.185)"/><path d="M1027.58 745.781 1075.7 745.781 1087.19 717.213 1122.61 717.213 1104.59 674.016 1117.27 642.506 1159.36 745.781 1206.95 745.781 1117.27 530.969 1027.58 745.781Z" fill="#D2ED66" fill-rule="nonzero" fill-opacity="1" transform="matrix(1 0 0 1.00114 1285 864.185)"/><path d="M174.846 745.781 222.963 745.781 234.457 717.213 269.873 717.213 251.852 674.016 264.536 642.506 306.64 745.781 354.226 745.781 264.536 530.969 174.846 745.781Z" fill="#D2ED66" fill-rule="nonzero" fill-opacity="1" transform="matrix(1 0 0 1.00114 1285 864.185)"/></g></g></g></g></svg>