<svg width="3675" height="2475" xmlns="http://www.w3.org/2000/svg" xmlns:xlink="http://www.w3.org/1999/xlink" overflow="hidden"><defs><clipPath id="clip0"><rect x="362" y="0" width="3675" height="2475"/></clipPath><clipPath id="clip1"><rect x="1057" y="866" width="2286" height="934"/></clipPath><clipPath id="clip2"><rect x="1057" y="866" width="2286" height="934"/></clipPath><clipPath id="clip3"><rect x="1057" y="866" width="2286" height="934"/></clipPath></defs><g clip-path="url(#clip0)" transform="translate(-362 0)"><path d="M364 0 4036 0 4036 2475 364 2475Z" fill="#E94A5D" fill-rule="evenodd" fill-opacity="1"/><g clip-path="url(#clip1)"><g clip-path="url(#clip2)"><g clip-path="url(#clip3)"><path d="M1209.45 120.875 1089.58 120.875 1104.72 0 1010.82 0 996.078 120.875 884.964 120.875 871.83 228.255 982.543 228.255 968.546 344.43 857.411 344.43 844.297 451.81 955.01 451.81 938.703 586.401 1032.29 586.401 1076.51 228.255 1196.02 228.255 1209.45 120.875Z" fill="#F8CF3A" fill-rule="nonzero" fill-opacity="1" transform="matrix(1 0 0 1.00099 1057 867.232)"/><path d="M1428.59 241.971 1441.7 134.591 1330.99 134.591 1347.3 0 1253.73 0 1209.49 358.167 1090 358.167 1076.55 465.546 1196.42 465.546 1181.3 586.401 1275.2 586.401 1289.94 465.546 1401.06 465.546 1414.17 358.167 1303.46 358.167 1317.47 241.971 1428.59 241.971Z" fill="#F8CF3A" fill-rule="nonzero" fill-opacity="1" transform="matrix(1 0 0 1.00099 1057 867.232)"/><path d="M134.169 770.635 53.7601 770.635 53.7601 663.276 0 663.276 0 931.614 53.7601 931.614 53.7601 824.255 134.169 824.255 134.169 931.614 187.95 931.614 187.95 663.276 134.169 663.276 134.169 770.635Z" fill="#F8CF3A" fill-rule="nonzero" fill-opacity="1" transform="matrix(1 0 0 1.00099 1057 867.232)"/><path d="M792.304 770.635 711.895 770.635 711.895 663.276 658.135 663.276 658.135 931.614 711.895 931.614 711.895 824.255 792.304 824.255 792.304 931.614 846.064 931.614 846.064 663.276 792.304 663.276 792.304 770.635Z" fill="#F8CF3A" fill-rule="nonzero" fill-opacity="1" transform="matrix(1 0 0 1.00099 1057 867.232)"/><path d="M1969.14 663.276 2022.9 663.276 2022.9 931.635 1969.14 931.635Z" fill="#F8CF3A" fill-rule="nonzero" fill-opacity="1" transform="matrix(1 0 0 1.00099 1057 867.232)"/><path d="M822.628 1105.57C837.411 1105.62 849.39 1117.57 849.478 1132.36L903.078 1132.36C902.375 1087.91 865.775 1052.45 821.327 1053.15 777.869 1053.83 742.805 1088.9 742.119 1132.36 742.119 1147.02 745.719 1159.25 752.923 1169.07 759.562 1178.39 767.812 1186.46 777.283 1192.88 785.237 1198.33 793.846 1202.75 802.907 1206.04 810.94 1208.83 815.82 1210.48 817.487 1211.04 820.7 1212.26 826.831 1214.53 835.883 1217.87 844.934 1221.2 849.464 1228.49 849.478 1239.74 849.884 1254.54 838.214 1266.87 823.411 1267.27 808.611 1267.67 796.284 1256 795.879 1241.2 795.865 1240.71 795.865 1240.22 795.879 1239.74L742.078 1239.74C742.781 1284.18 779.381 1319.65 823.829 1318.94 867.287 1318.26 902.351 1283.19 903.037 1239.74 903.037 1224.75 899.322 1212.46 891.892 1202.86 885.01 1193.76 876.515 1186 866.829 1179.97 858.581 1174.77 849.681 1170.69 840.361 1167.82 831.987 1165.39 826.866 1163.81 824.978 1163.16 820.961 1162.05 815.103 1159.03 807.406 1154.09 799.863 1149.51 795.425 1141.17 795.839 1132.36 795.754 1125.25 798.584 1118.42 803.671 1113.46 808.617 1108.3 815.487 1105.44 822.628 1105.57Z" fill="#F8CF3A" fill-rule="nonzero" fill-opacity="1" transform="matrix(1 0 0 1.00099 776.17 478.155)"/><path d="M1487.97 716.875 1555.07 716.875 1555.07 931.614 1608.83 931.614 1608.83 716.875 1675.92 716.875 1697.49 663.276 1509.54 663.276 1487.97 716.875Z" fill="#F8CF3A" fill-rule="nonzero" fill-opacity="1" transform="matrix(1 0 0 1.00099 1057 867.232)"/><path d="M2286 663.276 2224.25 663.276 2200.17 705.469 2230.77 759.932 2286 663.276Z" fill="#F8CF3A" fill-rule="nonzero" fill-opacity="1" transform="matrix(1 0 0 1.00099 1057 867.232)"/><path d="M2209.53 797.104 2178.7 743.042 2178.64 743.183 2133.01 663.276 2071.42 663.276 2147.67 797.284 2071.42 931.454 2133.01 931.614 2178.64 851.547 2224.25 931.614 2286 931.614 2209.43 797.284 2209.53 797.104Z" fill="#F8CF3A" fill-rule="nonzero" fill-opacity="1" transform="matrix(1 0 0 1.00099 1057 867.232)"/><path d="M2184.38 1199.71C2214.07 1157.12 2203.58 1098.52 2160.99 1068.84 2145.26 1057.88 2126.57 1052 2107.39 1051.97L2104.46 1051.97 2104.46 1105.57 2107.39 1105.57C2129.64 1105.57 2147.67 1123.6 2147.67 1145.85 2147.67 1168.1 2129.64 1186.14 2107.39 1186.14L2067.22 1186.14 2067.22 1105.57 2067.45 1105.57 2067.45 1051.97 2013.46 1051.97 2013.46 1320.31 2067.22 1320.31 2067.22 1222.1 2135.83 1320.31 2201.41 1320.31 2140.83 1233.57C2158.44 1226.95 2173.62 1215.15 2184.38 1199.71Z" fill="#F8CF3A" fill-rule="nonzero" fill-opacity="1" transform="matrix(1 0 0 1.00099 776.17 478.155)"/><path d="M982.382 931.614 1041 931.614 1079.82 818.732 1121.05 930.49 1148.52 853.394 1077.97 663.276 982.382 931.614Z" fill="#F8CF3A" fill-rule="nonzero" fill-opacity="1" transform="matrix(1 0 0 1.00099 1057 867.232)"/><path d="M1138.9 742.661 1206.22 931.614 1264.84 931.614 1169.25 663.276 1138.9 742.661Z" fill="#F8CF3A" fill-rule="nonzero" fill-opacity="1" transform="matrix(1 0 0 1.00099 1057 867.232)"/><path d="M1283.64 931.614 1343.74 931.614 1358.1 895.928 1402.34 895.928 1379.83 841.967 1395.67 802.606 1448.25 931.614 1507.69 931.614 1395.67 663.276 1283.64 931.614Z" fill="#F8CF3A" fill-rule="nonzero" fill-opacity="1" transform="matrix(1 0 0 1.00099 1057 867.232)"/><path d="M218.414 931.614 278.52 931.614 292.879 895.928 337.12 895.928 314.608 841.967 330.453 802.606 383.048 931.614 442.492 931.614 330.453 663.276 218.414 931.614Z" fill="#F8CF3A" fill-rule="nonzero" fill-opacity="1" transform="matrix(1 0 0 1.00099 1057 867.232)"/></g></g></g></g></svg>