<svg width="3607" height="2475" xmlns="http://www.w3.org/2000/svg" xmlns:xlink="http://www.w3.org/1999/xlink" overflow="hidden"><defs><clipPath id="clip0"><rect x="499" y="0" width="3607" height="2475"/></clipPath><clipPath id="clip1"><rect x="1945" y="1092" width="716" height="291"/></clipPath><clipPath id="clip2"><rect x="1945" y="1092" width="716" height="291"/></clipPath><clipPath id="clip3"><rect x="1945" y="1092" width="716" height="291"/></clipPath></defs><g clip-path="url(#clip0)" transform="translate(-499 0)"><rect x="503" y="0" width="3600" height="2475" fill="#D39FB5" fill-opacity="1"/><rect x="1832" y="319" width="942" height="1837" fill="#9076C6" fill-opacity="1"/><g clip-path="url(#clip1)"><g clip-path="url(#clip2)"><g clip-path="url(#clip3)"><path d="M377.598 37.7378 340.173 37.7378 344.901 0 315.583 0 310.981 37.7378 276.291 37.7378 272.19 71.2624 306.755 71.2624 302.385 107.533 267.688 107.533 263.594 141.058 298.16 141.058 293.069 183.078 322.286 183.078 336.092 71.2624 373.403 71.2624 377.598 37.7378Z" fill="#CBF653" fill-rule="nonzero" fill-opacity="1" transform="matrix(1.00182 0 0 1 1946 1092.07)"/><path d="M446.014 75.5446 450.108 42.0201 415.543 42.0201 420.634 0 391.423 0 377.61 111.822 340.305 111.822 336.104 145.346 373.529 145.346 368.808 183.078 398.125 183.078 402.727 145.346 437.418 145.346 441.512 111.822 406.947 111.822 411.323 75.5446 446.014 75.5446Z" fill="#CBF653" fill-rule="nonzero" fill-opacity="1" transform="matrix(1.00182 0 0 1 1946 1092.07)"/><path d="M41.8884 240.597 16.7842 240.597 16.7842 207.078 0 207.078 0 290.855 16.7842 290.855 16.7842 257.337 41.8884 257.337 41.8884 290.855 58.6789 290.855 58.6789 207.078 41.8884 207.078 41.8884 240.597Z" fill="#CBF653" fill-rule="nonzero" fill-opacity="1" transform="matrix(1.00182 0 0 1 1946 1092.07)"/><path d="M247.362 240.597 222.258 240.597 222.258 207.078 205.473 207.078 205.473 290.855 222.258 290.855 222.258 257.337 247.362 257.337 247.362 290.855 264.146 290.855 264.146 207.078 247.362 207.078 247.362 240.597Z" fill="#CBF653" fill-rule="nonzero" fill-opacity="1" transform="matrix(1.00182 0 0 1 1946 1092.07)"/><path d="M614.777 207.078 631.562 207.078 631.562 290.862 614.777 290.862Z" fill="#CBF653" fill-rule="nonzero" fill-opacity="1" transform="matrix(1.00182 0 0 1 1946 1092.07)"/><path d="M256.829 345.164C261.444 345.181 265.184 348.913 265.212 353.528L281.946 353.528C281.727 339.651 270.3 328.579 256.423 328.799 242.855 329.013 231.908 339.96 231.694 353.528 231.694 358.105 232.818 361.925 235.067 364.989 237.14 367.9 239.715 370.418 242.672 372.425 245.155 374.126 247.843 375.506 250.672 376.532 253.18 377.403 254.704 377.918 255.224 378.093 256.227 378.474 258.141 379.184 260.967 380.225 263.793 381.266 265.208 383.542 265.212 387.053 265.339 391.673 261.695 395.522 257.074 395.648 252.453 395.775 248.604 392.132 248.478 387.511 248.473 387.358 248.473 387.205 248.478 387.053L231.681 387.053C231.901 400.93 243.327 412.001 257.204 411.782 270.772 411.567 281.719 400.62 281.933 387.053 281.933 382.375 280.773 378.538 278.454 375.541 276.305 372.7 273.653 370.277 270.629 368.394 268.054 366.771 265.275 365.495 262.365 364.601 259.751 363.842 258.152 363.347 257.563 363.146 256.309 362.799 254.48 361.854 252.077 360.312 249.722 358.882 248.336 356.28 248.465 353.528 248.439 351.31 249.322 349.177 250.911 347.628 252.455 346.019 254.6 345.126 256.829 345.164Z" fill="#CBF653" fill-rule="nonzero" fill-opacity="1" transform="matrix(1.00182 0 0 1 1858.16 970.721)"/><path d="M464.553 223.812 485.501 223.812 485.501 290.855 502.285 290.855 502.285 223.812 523.232 223.812 529.966 207.078 471.287 207.078 464.553 223.812Z" fill="#CBF653" fill-rule="nonzero" fill-opacity="1" transform="matrix(1.00182 0 0 1 1946 1092.07)"/><path d="M713.702 207.078 694.422 207.078 686.905 220.251 696.46 237.255 713.702 207.078Z" fill="#CBF653" fill-rule="nonzero" fill-opacity="1" transform="matrix(1.00182 0 0 1 1946 1092.07)"/><path d="M689.827 248.86 680.203 231.982 680.184 232.026 665.939 207.078 646.709 207.078 670.516 248.917 646.709 290.805 665.939 290.855 680.184 265.858 694.422 290.855 713.702 290.855 689.795 248.917 689.827 248.86Z" fill="#CBF653" fill-rule="nonzero" fill-opacity="1" transform="matrix(1.00182 0 0 1 1946 1092.07)"/><path d="M681.977 374.557C691.244 361.258 687.971 342.965 674.673 333.699 669.763 330.277 663.926 328.439 657.939 328.43L657.023 328.43 657.023 345.164 657.939 345.164C664.886 345.164 670.516 350.795 670.516 357.741 670.516 364.688 664.886 370.319 657.939 370.319L645.399 370.319 645.399 345.164 645.468 345.164 645.468 328.43 628.615 328.43 628.615 412.207 645.399 412.207 645.399 381.548 666.817 412.207 687.294 412.207 668.378 385.128C673.876 383.062 678.616 379.376 681.977 374.557Z" fill="#CBF653" fill-rule="nonzero" fill-opacity="1" transform="matrix(1.00182 0 0 1 1858.16 970.721)"/><path d="M306.705 290.855 325.007 290.855 337.126 255.613 349.998 290.504 358.575 266.435 336.549 207.078 306.705 290.855Z" fill="#CBF653" fill-rule="nonzero" fill-opacity="1" transform="matrix(1.00182 0 0 1 1946 1092.07)"/><path d="M355.572 231.863 376.588 290.855 394.89 290.855 365.046 207.078 355.572 231.863Z" fill="#CBF653" fill-rule="nonzero" fill-opacity="1" transform="matrix(1.00182 0 0 1 1946 1092.07)"/><path d="M400.758 290.855 419.524 290.855 424.007 279.714 437.819 279.714 430.791 262.867 435.737 250.578 452.152 290.855 470.71 290.855 435.737 207.078 400.758 290.855Z" fill="#CBF653" fill-rule="nonzero" fill-opacity="1" transform="matrix(1.00182 0 0 1 1946 1092.07)"/><path d="M68.1902 290.855 86.9556 290.855 91.4385 279.714 105.251 279.714 98.2225 262.867 103.169 250.578 119.59 290.855 138.148 290.855 103.169 207.078 68.1902 290.855Z" fill="#CBF653" fill-rule="nonzero" fill-opacity="1" transform="matrix(1.00182 0 0 1 1946 1092.07)"/></g></g></g></g></svg>