<svg width="124" height="130" viewBox="0 0 124 130" fill="none" xmlns="http://www.w3.org/2000/svg">
<path d="M123.298 0H0.0195312V84.4235L61.6588 129.914L123.298 84.4235V0Z" fill="#0047FF"/>
<path d="M73.4501 47.9287C73.4543 45.8331 72.8767 43.7745 71.7771 41.9657C70.6774 40.1569 69.0955 38.6636 67.1952 37.6402C65.2949 36.6168 63.1452 36.1004 60.9681 36.1444C58.7909 36.1885 56.6654 36.7914 54.8115 37.8908C52.9576 38.9901 51.4429 40.5461 50.4233 42.3978C49.4036 44.2494 48.9161 46.3296 49.0118 48.4231C49.1075 50.5167 49.7827 52.5477 50.9674 54.3061C52.152 56.0644 53.8031 57.4864 55.7501 58.4249V71.8695H66.7218V58.4249C68.7428 57.446 70.4416 55.9464 71.6295 54.0933C72.8175 52.2401 73.4478 50.1061 73.4501 47.9287Z" fill="#060606"/>
</svg>
