<?xml version="1.0" standalone="no"?><!DOCTYPE svg PUBLIC "-//W3C//DTD SVG 1.1//EN" "http://www.w3.org/Graphics/SVG/1.1/DTD/svg11.dtd"><svg t="1673311417693" class="icon" viewBox="0 0 1024 1024" version="1.1" xmlns="http://www.w3.org/2000/svg" p-id="1853" xmlns:xlink="http://www.w3.org/1999/xlink" width="200" height="200"><path d="M416.914286 265.752381c54.857143-54.857143 142.628571-54.857143 197.485714 0s54.857143 142.628571 0 197.485714L472.990476 603.428571l34.133334 34.133334 140.190476-140.190476c73.142857-73.142857 73.142857-192.609524 0-265.752381s-192.609524-73.142857-265.752381 0L252.342857 360.838095c-6.095238-2.438095-13.409524-3.657143-20.723809-3.657143-37.790476 0-68.266667 30.47619-68.266667 68.266667 0 37.790476 30.47619 68.266667 68.266667 68.266667s68.266667-30.47619 68.266666-68.266667c0-12.190476-3.657143-24.380952-9.752381-34.133333l126.780953-125.561905z" fill="#0042fb" p-id="1854"></path><path d="M792.380952 533.942857c-37.790476 0-69.485714 30.47619-69.485714 69.485714 0 9.752381 2.438095 19.504762 6.095238 28.038096L602.209524 758.247619c-54.857143 54.857143-142.628571 54.857143-197.485714 0s-54.857143-142.628571 0-197.485714l140.190476-140.190476-32.914286-35.352381-141.409524 141.409523c-73.142857 73.142857-73.142857 192.609524 0 265.752381 36.571429 36.571429 85.333333 54.857143 132.876191 54.857143 48.761905 0 96.304762-18.285714 132.87619-54.857143l126.780953-126.780952c8.533333 3.657143 18.285714 6.095238 28.038095 6.095238 37.790476 0 69.485714-30.47619 69.485714-69.485714 1.219048-37.790476-30.47619-68.266667-68.266667-68.266667z" fill="#0042fb" p-id="1855"></path></svg>